<mxfile host="65bd71144e">
    <diagram id="DnAflmZMkEvuKgCl_pda" name="第 1 页">
        <mxGraphModel dx="905" dy="485" grid="0" gridSize="10" guides="1" tooltips="1" connect="1" arrows="1" fold="1" page="1" pageScale="1" pageWidth="827" pageHeight="1169" background="none" math="0" shadow="1">
            <root>
                <mxCell id="0"/>
                <mxCell id="1" parent="0"/>
                <mxCell id="4" value="" style="edgeStyle=none;html=1;entryX=0.488;entryY=0.993;entryDx=0;entryDy=0;entryPerimeter=0;sketch=1;curveFitting=1;jiggle=2;fontFamily=Comic Sans MS;fontSize=16;labelBackgroundColor=none;" edge="1" parent="1" source="2" target="3">
                    <mxGeometry relative="1" as="geometry"/>
                </mxCell>
                <mxCell id="2" value="reg" style="rounded=1;whiteSpace=wrap;html=1;sketch=1;curveFitting=1;jiggle=2;fontFamily=Comic Sans MS;fontSize=16;shadow=0;labelBackgroundColor=none;fillStyle=hachure;fillColor=#dae8fc;strokeColor=#6c8ebf;gradientColor=#7ea6e0;" vertex="1" parent="1">
                    <mxGeometry x="170" y="200" width="120" height="60" as="geometry"/>
                </mxCell>
                <mxCell id="3" value="" style="shape=trapezoid;perimeter=trapezoidPerimeter;whiteSpace=wrap;html=1;fixedSize=1;rotation=90;sketch=1;curveFitting=1;jiggle=2;fontFamily=Comic Sans MS;fontSize=16;shadow=0;labelBackgroundColor=none;fillStyle=hachure;rounded=1;fillColor=#dae8fc;strokeColor=#6c8ebf;gradientColor=#7ea6e0;" vertex="1" parent="1">
                    <mxGeometry x="310" y="200" width="190" height="60" as="geometry"/>
                </mxCell>
                <mxCell id="5" value="" style="endArrow=classic;html=1;sketch=1;curveFitting=1;jiggle=2;fontFamily=Comic Sans MS;fontSize=16;labelBackgroundColor=none;" edge="1" parent="1">
                    <mxGeometry width="50" height="50" relative="1" as="geometry">
                        <mxPoint x="240" y="320" as="sourcePoint"/>
                        <mxPoint x="240" y="260" as="targetPoint"/>
                    </mxGeometry>
                </mxCell>
                <mxCell id="11" value="enable" style="edgeLabel;html=1;align=center;verticalAlign=middle;resizable=0;points=[];sketch=1;curveFitting=1;jiggle=2;fontFamily=Comic Sans MS;fontSize=16;labelBackgroundColor=none;" vertex="1" connectable="0" parent="5">
                    <mxGeometry relative="1" as="geometry">
                        <mxPoint x="30" as="offset"/>
                    </mxGeometry>
                </mxCell>
                <mxCell id="6" value="" style="endArrow=classic;html=1;entryX=0;entryY=0.5;entryDx=0;entryDy=0;sketch=1;curveFitting=1;jiggle=2;fontFamily=Comic Sans MS;fontSize=16;labelBackgroundColor=none;" edge="1" parent="1" target="2">
                    <mxGeometry width="50" height="50" relative="1" as="geometry">
                        <mxPoint x="60" y="230" as="sourcePoint"/>
                        <mxPoint x="100" y="190" as="targetPoint"/>
                    </mxGeometry>
                </mxCell>
                <mxCell id="10" value="data" style="edgeLabel;html=1;align=center;verticalAlign=middle;resizable=0;points=[];sketch=1;curveFitting=1;jiggle=2;fontFamily=Comic Sans MS;fontSize=16;labelBackgroundColor=none;" vertex="1" connectable="0" parent="6">
                    <mxGeometry relative="1" as="geometry">
                        <mxPoint as="offset"/>
                    </mxGeometry>
                </mxCell>
                <mxCell id="7" value="" style="endArrow=classic;html=1;entryX=0.216;entryY=1.067;entryDx=0;entryDy=0;entryPerimeter=0;sketch=1;curveFitting=1;jiggle=2;fontFamily=Comic Sans MS;fontSize=16;labelBackgroundColor=none;" edge="1" parent="1" target="3">
                    <mxGeometry width="50" height="50" relative="1" as="geometry">
                        <mxPoint x="110" y="230" as="sourcePoint"/>
                        <mxPoint x="170" y="170" as="targetPoint"/>
                        <Array as="points">
                            <mxPoint x="110" y="180"/>
                        </Array>
                    </mxGeometry>
                </mxCell>
                <mxCell id="8" value="" style="endArrow=classic;html=1;sketch=1;curveFitting=1;jiggle=2;fontFamily=Comic Sans MS;fontSize=16;labelBackgroundColor=none;" edge="1" parent="1">
                    <mxGeometry width="50" height="50" relative="1" as="geometry">
                        <mxPoint x="399.5" y="380" as="sourcePoint"/>
                        <mxPoint x="399.5" y="320" as="targetPoint"/>
                    </mxGeometry>
                </mxCell>
                <mxCell id="12" value="bypass&lt;div&gt;&lt;br&gt;&lt;/div&gt;" style="edgeLabel;html=1;align=center;verticalAlign=middle;resizable=0;points=[];sketch=1;curveFitting=1;jiggle=2;fontFamily=Comic Sans MS;fontSize=16;labelBackgroundColor=none;" vertex="1" connectable="0" parent="8">
                    <mxGeometry relative="1" as="geometry">
                        <mxPoint x="31" as="offset"/>
                    </mxGeometry>
                </mxCell>
                <mxCell id="9" value="" style="edgeStyle=none;html=1;sketch=1;curveFitting=1;jiggle=2;fontFamily=Comic Sans MS;fontSize=16;labelBackgroundColor=none;" edge="1" parent="1">
                    <mxGeometry relative="1" as="geometry">
                        <mxPoint x="430" y="232" as="sourcePoint"/>
                        <mxPoint x="510" y="233" as="targetPoint"/>
                    </mxGeometry>
                </mxCell>
            </root>
        </mxGraphModel>
    </diagram>
</mxfile>